<mxfile host="app.diagrams.net" agent="Mozilla/5.0 (Windows NT 10.0; Win64; x64) AppleWebKit/537.36 (KHTML, like Gecko) Chrome/131.0.0.0 Safari/537.36" version="24.8.6">
  <diagram name="Страница — 1" id="nB2mBrnMe3QWCw6ONptC">
    <mxGraphModel dx="1434" dy="784" grid="1" gridSize="10" guides="1" tooltips="1" connect="1" arrows="1" fold="1" page="1" pageScale="1" pageWidth="827" pageHeight="1169" math="0" shadow="0">
      <root>
        <mxCell id="0" />
        <mxCell id="1" parent="0" />
        <mxCell id="rdw4TKe4lL0hn0wX0F5C-1" value="" style="rounded=1;whiteSpace=wrap;html=1;" vertex="1" parent="1">
          <mxGeometry x="40" y="40" width="230" height="370" as="geometry" />
        </mxCell>
        <mxCell id="rdw4TKe4lL0hn0wX0F5C-2" value="" style="rounded=1;whiteSpace=wrap;html=1;" vertex="1" parent="1">
          <mxGeometry x="60" y="370" width="190" height="20" as="geometry" />
        </mxCell>
        <mxCell id="rdw4TKe4lL0hn0wX0F5C-4" value="" style="rounded=0;whiteSpace=wrap;html=1;" vertex="1" parent="1">
          <mxGeometry x="60" y="70" width="190" height="280" as="geometry" />
        </mxCell>
        <mxCell id="rdw4TKe4lL0hn0wX0F5C-5" value="АДМИНКА" style="rounded=1;whiteSpace=wrap;html=1;" vertex="1" parent="1">
          <mxGeometry x="95" y="120" width="120" height="50" as="geometry" />
        </mxCell>
        <mxCell id="rdw4TKe4lL0hn0wX0F5C-7" value="РАБОТНИК" style="rounded=1;whiteSpace=wrap;html=1;" vertex="1" parent="1">
          <mxGeometry x="95" y="200" width="120" height="50" as="geometry" />
        </mxCell>
        <mxCell id="rdw4TKe4lL0hn0wX0F5C-8" value="" style="rounded=1;whiteSpace=wrap;html=1;" vertex="1" parent="1">
          <mxGeometry x="40" y="440" width="230" height="370" as="geometry" />
        </mxCell>
        <mxCell id="rdw4TKe4lL0hn0wX0F5C-9" value="" style="rounded=1;whiteSpace=wrap;html=1;" vertex="1" parent="1">
          <mxGeometry x="60" y="770" width="190" height="20" as="geometry" />
        </mxCell>
        <mxCell id="rdw4TKe4lL0hn0wX0F5C-10" value="" style="rounded=0;whiteSpace=wrap;html=1;" vertex="1" parent="1">
          <mxGeometry x="60" y="470" width="190" height="280" as="geometry" />
        </mxCell>
        <mxCell id="rdw4TKe4lL0hn0wX0F5C-11" value="МЕНЕДЖМЕНТ СОТРУДНИКОВ" style="rounded=1;whiteSpace=wrap;html=1;" vertex="1" parent="1">
          <mxGeometry x="95" y="500" width="120" height="60" as="geometry" />
        </mxCell>
        <mxCell id="rdw4TKe4lL0hn0wX0F5C-12" value="РАБОТА&lt;div&gt;С МЕНЮ&lt;/div&gt;" style="rounded=1;whiteSpace=wrap;html=1;" vertex="1" parent="1">
          <mxGeometry x="95" y="580" width="120" height="60" as="geometry" />
        </mxCell>
        <mxCell id="rdw4TKe4lL0hn0wX0F5C-13" value="МЕНЕДЖМЕНТ РЕЗУЛЬТАТОВ" style="rounded=1;whiteSpace=wrap;html=1;" vertex="1" parent="1">
          <mxGeometry x="95" y="660" width="120" height="60" as="geometry" />
        </mxCell>
        <mxCell id="rdw4TKe4lL0hn0wX0F5C-14" value="АДМИНКА" style="rounded=0;whiteSpace=wrap;html=1;" vertex="1" parent="1">
          <mxGeometry x="300" y="390" width="120" height="60" as="geometry" />
        </mxCell>
        <mxCell id="rdw4TKe4lL0hn0wX0F5C-15" value="" style="rounded=1;whiteSpace=wrap;html=1;" vertex="1" parent="1">
          <mxGeometry x="40" y="840" width="230" height="370" as="geometry" />
        </mxCell>
        <mxCell id="rdw4TKe4lL0hn0wX0F5C-16" value="" style="rounded=1;whiteSpace=wrap;html=1;" vertex="1" parent="1">
          <mxGeometry x="60" y="1170" width="190" height="20" as="geometry" />
        </mxCell>
        <mxCell id="rdw4TKe4lL0hn0wX0F5C-17" value="" style="rounded=0;whiteSpace=wrap;html=1;" vertex="1" parent="1">
          <mxGeometry x="60" y="870" width="190" height="280" as="geometry" />
        </mxCell>
        <mxCell id="rdw4TKe4lL0hn0wX0F5C-18" value="ДОБАВИТЬ СОТРУДНИКА" style="rounded=1;whiteSpace=wrap;html=1;" vertex="1" parent="1">
          <mxGeometry x="95" y="900" width="120" height="60" as="geometry" />
        </mxCell>
        <mxCell id="rdw4TKe4lL0hn0wX0F5C-19" value="ИЗМЕНИТЬ&amp;nbsp;&lt;div&gt;РОЛЬ&lt;/div&gt;" style="rounded=1;whiteSpace=wrap;html=1;" vertex="1" parent="1">
          <mxGeometry x="95" y="980" width="120" height="60" as="geometry" />
        </mxCell>
        <mxCell id="rdw4TKe4lL0hn0wX0F5C-20" value="УДАЛИТЬ СОТРУДНИКА" style="rounded=1;whiteSpace=wrap;html=1;" vertex="1" parent="1">
          <mxGeometry x="95" y="1060" width="120" height="60" as="geometry" />
        </mxCell>
        <mxCell id="rdw4TKe4lL0hn0wX0F5C-21" value="МЕНЕДЖМЕНТ СОТРУДНИКОВ" style="rounded=0;whiteSpace=wrap;html=1;" vertex="1" parent="1">
          <mxGeometry x="290" y="800" width="120" height="60" as="geometry" />
        </mxCell>
        <mxCell id="rdw4TKe4lL0hn0wX0F5C-22" value="" style="rounded=1;whiteSpace=wrap;html=1;" vertex="1" parent="1">
          <mxGeometry x="40" y="1240" width="230" height="370" as="geometry" />
        </mxCell>
        <mxCell id="rdw4TKe4lL0hn0wX0F5C-23" value="" style="rounded=1;whiteSpace=wrap;html=1;" vertex="1" parent="1">
          <mxGeometry x="60" y="1570" width="190" height="20" as="geometry" />
        </mxCell>
        <mxCell id="rdw4TKe4lL0hn0wX0F5C-24" value="" style="rounded=0;whiteSpace=wrap;html=1;" vertex="1" parent="1">
          <mxGeometry x="60" y="1270" width="190" height="280" as="geometry" />
        </mxCell>
        <mxCell id="rdw4TKe4lL0hn0wX0F5C-25" value="ГОРЯЧИЙ&lt;span style=&quot;color: rgba(0, 0, 0, 0); font-family: monospace; font-size: 0px; text-align: start; text-wrap-mode: nowrap;&quot;&gt;%3CmxGraphModel%3E%3Croot%3E%3CmxCell%20id%3D%220%22%2F%3E%3CmxCell%20id%3D%221%22%20parent%3D%220%22%2F%3E%3CmxCell%20id%3D%222%22%20value%3D%22%22%20style%3D%22rounded%3D1%3BwhiteSpace%3Dwrap%3Bhtml%3D1%3B%22%20vertex%3D%221%22%20parent%3D%221%22%3E%3CmxGeometry%20x%3D%2240%22%20y%3D%22840%22%20width%3D%22230%22%20height%3D%22370%22%20as%3D%22geometry%22%2F%3E%3C%2FmxCell%3E%3CmxCell%20id%3D%223%22%20value%3D%22%22%20style%3D%22rounded%3D1%3BwhiteSpace%3Dwrap%3Bhtml%3D1%3B%22%20vertex%3D%221%22%20parent%3D%221%22%3E%3CmxGeometry%20x%3D%2260%22%20y%3D%221170%22%20width%3D%22190%22%20height%3D%2220%22%20as%3D%22geometry%22%2F%3E%3C%2FmxCell%3E%3CmxCell%20id%3D%224%22%20value%3D%22%22%20style%3D%22rounded%3D0%3BwhiteSpace%3Dwrap%3Bhtml%3D1%3B%22%20vertex%3D%221%22%20parent%3D%221%22%3E%3CmxGeometry%20x%3D%2260%22%20y%3D%22870%22%20width%3D%22190%22%20height%3D%22280%22%20as%3D%22geometry%22%2F%3E%3C%2FmxCell%3E%3CmxCell%20id%3D%225%22%20value%3D%22%D0%94%D0%9E%D0%91%D0%90%D0%92%D0%98%D0%A2%D0%AC%20%D0%A1%D0%9E%D0%A2%D0%A0%D0%A3%D0%94%D0%9D%D0%98%D0%9A%D0%90%22%20style%3D%22rounded%3D1%3BwhiteSpace%3Dwrap%3Bhtml%3D1%3B%22%20vertex%3D%221%22%20parent%3D%221%22%3E%3CmxGeometry%20x%3D%2295%22%20y%3D%22900%22%20width%3D%22120%22%20height%3D%2260%22%20as%3D%22geometry%22%2F%3E%3C%2FmxCell%3E%3CmxCell%20id%3D%226%22%20value%3D%22%D0%98%D0%97%D0%9C%D0%95%D0%9D%D0%98%D0%A2%D0%AC%26amp%3Bnbsp%3B%26lt%3Bdiv%26gt%3B%D0%A0%D0%9E%D0%9B%D0%AC%26lt%3B%2Fdiv%26gt%3B%22%20style%3D%22rounded%3D1%3BwhiteSpace%3Dwrap%3Bhtml%3D1%3B%22%20vertex%3D%221%22%20parent%3D%221%22%3E%3CmxGeometry%20x%3D%2295%22%20y%3D%22980%22%20width%3D%22120%22%20height%3D%2260%22%20as%3D%22geometry%22%2F%3E%3C%2FmxCell%3E%3CmxCell%20id%3D%227%22%20value%3D%22%D0%A3%D0%94%D0%90%D0%9B%D0%98%D0%A2%D0%AC%20%D0%A1%D0%9E%D0%A2%D0%A0%D0%A3%D0%94%D0%9D%D0%98%D0%9A%D0%90%22%20style%3D%22rounded%3D1%3BwhiteSpace%3Dwrap%3Bhtml%3D1%3B%22%20vertex%3D%221%22%20parent%3D%221%22%3E%3CmxGeometry%20x%3D%2295%22%20y%3D%221060%22%20width%3D%22120%22%20height%3D%2260%22%20as%3D%22geometry%22%2F%3E%3C%2FmxCell%3E%3CmxCell%20id%3D%228%22%20value%3D%22%D0%9C%D0%95%D0%9D%D0%95%D0%94%D0%96%D0%9C%D0%95%D0%9D%D0%A2%20%D0%A1%D0%9E%D0%A2%D0%A0%D0%A3%D0%94%D0%9D%D0%98%D0%9A%D0%9E%D0%92%22%20style%3D%22rounded%3D0%3BwhiteSpace%3Dwrap%3Bhtml%3D1%3B%22%20vertex%3D%221%22%20parent%3D%221%22%3E%3CmxGeometry%20x%3D%22290%22%20y%3D%22800%22%20width%3D%22120%22%20height%3D%2260%22%20as%3D%22geometry%22%2F%3E%3C%2FmxCell%3E%3C%2Froot%3E%3C%2FmxGraphModel%3E&lt;/span&gt;&amp;nbsp;ЦЕХ" style="rounded=1;whiteSpace=wrap;html=1;" vertex="1" parent="1">
          <mxGeometry x="95" y="1300" width="120" height="50" as="geometry" />
        </mxCell>
        <mxCell id="rdw4TKe4lL0hn0wX0F5C-28" value="РАБОТА С МЕНЮ" style="rounded=0;whiteSpace=wrap;html=1;" vertex="1" parent="1">
          <mxGeometry x="290" y="1200" width="120" height="60" as="geometry" />
        </mxCell>
        <mxCell id="rdw4TKe4lL0hn0wX0F5C-29" value="ХОЛОДНЫЙ ЦЕХ" style="rounded=1;whiteSpace=wrap;html=1;" vertex="1" parent="1">
          <mxGeometry x="95" y="1380" width="120" height="50" as="geometry" />
        </mxCell>
        <mxCell id="rdw4TKe4lL0hn0wX0F5C-30" value="НАПИТКИ" style="rounded=1;whiteSpace=wrap;html=1;" vertex="1" parent="1">
          <mxGeometry x="95" y="1460" width="120" height="50" as="geometry" />
        </mxCell>
      </root>
    </mxGraphModel>
  </diagram>
</mxfile>
